<svg data-v-0dd9719b="" version="1.0" xmlns="http://www.w3.org/2000/svg" xmlns:xlink="http://www.w3.org/1999/xlink" width="100%" height="100%" viewBox="0 0 340.000000 250.000000" preserveAspectRatio="xMidYMid meet" color-interpolation-filters="sRGB" style="margin: auto;"> <rect data-v-0dd9719b="" x="0" y="0" width="100%" height="100%" fill="#fff" fill-opacity="1" class="background"></rect> <rect data-v-0dd9719b="" x="0" y="0" width="100%" height="100%" fill="url(#watermark)" fill-opacity="1" class="watermarklayer"></rect> <g data-v-0dd9719b="" fill="#007fb8" class="icon-text-wrapper icon-svg-group iconsvg" transform="translate(47.73500061035156,98.15988731384277)"><g class="iconsvg-imagesvg" transform="translate(0,0)"><g><rect fill="#007fb8" fill-opacity="0" stroke-width="2" x="0" y="0" width="60" height="53.68022688842565" class="image-rect"></rect> <svg x="0" y="0" width="60" height="53.68022688842565" filtersec="colorsb1617338239" class="image-svg-svg primary" style="overflow: visible;"><svg xmlns="http://www.w3.org/2000/svg" viewBox="-0.0009589195251464844 0.0006586723611690104 130.1109619140625 116.40626525878906"><g><g><path d="M0 47.81c.06 1.34 2.32 2.54 6.37 3.58a57.71 57.71 0 0 1 1.34-8.14C2.7 44.75-.06 46.3 0 47.81zM120.67 71.18l-.13.5c3.44-.37 6.65-.77 9.57-1.2-3.03.26-6.19.52-9.44.7z" fill="#fff"></path><path d="M48.3 38l.25.6c-2.45.44-4.71.9-6.75 1.36-8.54 1.93-13.42 4-13.33 6 .11 2.53 8 4.56 21.17 5.9 1.94.2 4 .38 6.15.55 17 1.31 40.49 1.65 66.45.71a58.17 58.17 0 0 0-114.52-8.5c7.11-2.12 18.74-4.13 33.34-5.8 2.34-.27 4.75-.53 7.24-.82z" fill="#007fb8"></path><path d="M58.43 56.85q1.91 3.1 4.06 6.41l2.4-.26-2.3.35c-1.53.24-3 .49-4.29.74-7.57 1.43-12 3-12 4.55.08 1.92 7.17 3.39 18.5 4.2q2.07.15 4.33.27c10.36.55 23.47.62 37.73.09 4.74-.18 9.35-.41 13.78-.7a58.29 58.29 0 0 0 1.79-14.38c0-1.13 0-2.25-.11-3.37-8.75.63-18 1.14-27.67 1.5-12.8.54-25.04.75-36.22.6z" fill="#c1c2c2"></path><path d="M70.9 75.64q4 5.62 8.39 11.57c5.22.18 11.4.17 18-.08 4.58-.17 8.94-.44 12.91-.78a226.8 226.8 0 0 1-23 1.91c-2.39.09-4.72.15-7 .18h-3.1c-13.62 0-23.54-1-23.61-2.74-.07-1.47 7.32-3 18.15-4.06l-.49-.64q-2.15-2.68-4.22-5.37c-22.59-.14-38.69-2-38.81-4.91C28 68.2 40 65.55 58 63.7q-2.57-3.52-5-6.93c-21.24-.39-38-1.82-46.64-4-.16 1.78-.26 3.59-.26 5.42a58.18 58.18 0 0 0 114.44 14.86c-9.23 1-20.13 1.79-31.85 2.23-6.19.23-12.17.35-17.79.36z" fill="#c1c2c2"></path><path d="M63.61 84.59c.05 1.18 4.85 2.05 12.35 2.47q-2.1-2.59-4.21-5.26c-5.11.85-8.18 1.84-8.14 2.79z" fill="#e2e0c3"></path><path d="M106.89 73.25c-14.26.53-27.37.46-37.73-.09q-2.26-.12-4.33-.27c-11.33-.82-18.42-2.29-18.5-4.2-.07-1.54 4.4-3.13 12-4.55 1.34-.25 2.76-.5 4.29-.74l2.3-.35-2.39.21q-2.16-3.31-4.06-6.41c11.17.11 23.42-.06 36.25-.54 9.64-.36 18.93-.87 27.67-1.5 0-.55-.08-1.09-.12-1.64-26 .94-49.47.61-66.45-.71-2.16-.17-4.21-.35-6.15-.55-13.17-1.34-21.09-3.37-21.2-5.91-.09-2 4.79-4.09 13.33-6 2-.46 4.3-.91 6.75-1.36L48.3 38c-2.49.25-4.89.51-7.24.78-14.6 1.67-26.23 3.68-33.34 5.8a57.69 57.69 0 0 0-1.34 8.14c8.62 2.19 25.4 3.62 46.64 4q2.39 3.4 5 6.93c-17.95 1.85-30 4.5-29.86 7 .12 2.89 16.23 4.77 38.81 4.91Q69 78.32 71.15 81l.49.62c-10.83 1-18.22 2.58-18.15 4.06.07 1.7 10 2.76 23.61 2.74h3.1c2.25 0 4.58-.09 7-.18a226.8 226.8 0 0 0 23-1.91c-4 .34-8.33.61-12.91.78-6.62.25-12.8.26-18 .08q-4.43-5.94-8.39-11.57c5.63 0 11.6-.13 17.79-.36 11.72-.44 22.63-1.23 31.85-2.23l.13-.5c-4.43.31-9.03.54-13.78.72zM76 87.06c-7.49-.42-12.3-1.29-12.35-2.47 0-1 3-1.94 8.13-2.79q2.08 2.67 4.22 5.26z" fill="#fff"></path></g></g></svg></svg> <!----></g></g> <g transform="translate(67,10.645112991333008)"><g data-gra="path-name" fill-rule="" class="tp-name iconsvg-namesvg"><g transform="scale(1)"><g><path d="M25.04-31.15L25.04-31.15Q24.86-29.22 24.79-27.41 24.73-25.61 24.73-24.64L24.73-24.64Q24.73-23.76 24.77-22.97 24.82-22.18 24.86-21.65L24.86-21.65 23.85-21.65Q23.41-24.86 22.48-26.73 21.56-28.6 20.09-29.37 18.61-30.14 16.63-30.14L16.63-30.14 14.83-30.14Q13.51-30.14 12.87-29.92 12.23-29.7 12.01-29.06 11.79-28.42 11.79-27.02L11.79-27.02 11.79-4.14Q11.79-2.77 12.01-2.11 12.23-1.45 12.87-1.23 13.51-1.01 14.83-1.01L14.83-1.01 16.98-1.01Q18.96-1.01 20.48-1.87 22-2.73 23.08-4.8 24.16-6.86 24.73-10.38L24.73-10.38 25.74-10.38Q25.61-8.98 25.61-6.69L25.61-6.69Q25.61-5.68 25.65-3.83 25.7-1.98 25.92 0L25.92 0Q23.67-0.09 20.86-0.11 18.04-0.13 15.84-0.13L15.84-0.13Q14.34-0.13 11.88-0.13 9.42-0.13 6.64-0.11 3.87-0.09 1.5 0L1.5 0 1.5-0.88Q2.9-0.97 3.61-1.23 4.31-1.5 4.55-2.29 4.8-3.08 4.8-4.66L4.8-4.66 4.8-26.49Q4.8-28.12 4.55-28.89 4.31-29.66 3.59-29.94 2.86-30.23 1.5-30.27L1.5-30.27 1.5-31.15Q3.87-31.11 6.64-31.06 9.42-31.02 11.88-31.02 14.34-31.02 15.84-31.02L15.84-31.02Q17.86-31.02 20.44-31.04 23.01-31.06 25.04-31.15ZM10.47-16.1L18.17-16.1Q18.17-16.1 18.17-15.66 18.17-15.22 18.17-15.22L18.17-15.22 10.47-15.22Q10.47-15.22 10.47-15.66 10.47-16.1 10.47-16.1L10.47-16.1ZM18.44-21.91L19.45-21.91Q19.27-19.4 19.29-18.08 19.32-16.76 19.32-15.66L19.32-15.66Q19.32-14.56 19.36-13.24 19.4-11.92 19.58-9.42L19.58-9.42 18.57-9.42Q18.35-10.96 17.75-12.28 17.16-13.6 16.06-14.41 14.96-15.22 13.2-15.22L13.2-15.22 13.2-16.1Q14.96-16.1 16.02-17.07 17.07-18.04 17.64-19.38 18.22-20.72 18.44-21.91L18.44-21.91ZM45.36-31.77L45.36-31.77Q48.27-31.77 50.14-30.91 52.01-30.05 53.46-28.91L53.46-28.91Q54.34-28.25 54.8-28.75 55.26-29.26 55.44-31.15L55.44-31.15 56.45-31.15Q56.36-29.44 56.32-26.99 56.27-24.55 56.27-20.5L56.27-20.5 55.26-20.5Q55.04-22.53 54.69-23.96 54.34-25.39 53.72-26.49 53.11-27.59 51.96-28.47L51.96-28.47Q50.86-29.57 49.41-30.1 47.96-30.62 46.37-30.62L46.37-30.62Q44-30.62 42.33-29.37 40.66-28.12 39.62-25.96 38.59-23.8 38.1-21.1 37.62-18.39 37.62-15.49L37.62-15.49Q37.62-12.54 38.13-9.83 38.63-7.13 39.71-5.02 40.79-2.9 42.5-1.67 44.22-0.44 46.55-0.44L46.55-0.44Q48-0.44 49.48-0.99 50.95-1.54 52.01-2.6L52.01-2.6Q53.72-3.92 54.34-5.87 54.95-7.83 55.26-11.09L55.26-11.09 56.27-11.09Q56.27-6.91 56.32-4.33 56.36-1.76 56.45 0L56.45 0 55.44 0Q55.26-1.89 54.84-2.38 54.43-2.86 53.46-2.24L53.46-2.24Q51.83-1.1 50-0.24 48.18 0.62 45.32 0.62L45.32 0.62Q40.66 0.62 37.16-1.28 33.66-3.17 31.72-6.73 29.79-10.3 29.79-15.31L29.79-15.31Q29.79-20.24 31.79-23.94 33.79-27.63 37.29-29.7 40.79-31.77 45.36-31.77ZM76.38-31.77L76.38-31.77Q81.05-31.77 84.54-29.88 88.04-27.98 89.98-24.44 91.91-20.9 91.91-15.84L91.91-15.84Q91.91-10.91 89.93-7.22 87.95-3.52 84.41-1.45 80.87 0.62 76.34 0.62L76.34 0.62Q71.67 0.62 68.18-1.28 64.68-3.17 62.74-6.73 60.81-10.3 60.81-15.31L60.81-15.31Q60.81-20.24 62.81-23.94 64.81-27.63 68.31-29.7 71.81-31.77 76.38-31.77ZM76.21-30.98L76.21-30.98Q73.74-30.98 71.92-29 70.09-27.02 69.1-23.54 68.11-20.06 68.11-15.49L68.11-15.49Q68.11-10.82 69.23-7.37 70.35-3.92 72.27-2.05 74.18-0.18 76.51-0.18L76.51-0.18Q78.98-0.18 80.8-2.16 82.63-4.14 83.62-7.63 84.61-11.13 84.61-15.66L84.61-15.66Q84.61-20.37 83.49-23.8 82.37-27.24 80.45-29.11 78.54-30.98 76.21-30.98ZM123.95-31.15L123.95-31.15 123.95-30.27Q122.54-30.1 121.83-29.55 121.13-29 120.89-27.81 120.65-26.62 120.65-24.46L120.65-24.46 120.65 0.09Q120.12 0.04 119.57 0.04 119.02 0.04 118.4 0.09L118.4 0.09 99.31-24.11 99.31-7.22Q99.31-4.8 99.57-3.5 99.83-2.2 100.74-1.65 101.64-1.1 103.57-0.88L103.57-0.88 103.57 0Q102.74-0.09 101.37-0.11 100.01-0.13 98.82-0.13L98.82-0.13Q97.81-0.13 96.75-0.11 95.7-0.09 94.99 0L94.99 0 94.99-0.88Q96.4-1.1 97.11-1.63 97.81-2.16 98.05-3.37 98.29-4.58 98.29-6.69L98.29-6.69 98.29-26.49Q98.29-28.12 98.05-28.89 97.81-29.66 97.08-29.94 96.36-30.23 94.99-30.27L94.99-30.27 94.99-31.15Q95.7-31.11 96.75-31.06 97.81-31.02 98.82-31.02L98.82-31.02Q99.88-31.02 100.85-31.06 101.81-31.11 102.61-31.15L102.61-31.15 119.63-10.16 119.63-23.94Q119.63-26.36 119.37-27.65 119.11-28.95 118.2-29.52 117.3-30.1 115.37-30.27L115.37-30.27 115.37-31.15Q116.2-31.11 117.57-31.06 118.93-31.02 120.12-31.02L120.12-31.02Q121.17-31.02 122.21-31.06 123.24-31.11 123.95-31.15ZM150.26-31.15L150.26-31.15Q150.08-29.22 150.01-27.41 149.95-25.61 149.95-24.64L149.95-24.64Q149.95-23.76 149.99-22.97 150.04-22.18 150.08-21.65L150.08-21.65 149.07-21.65Q148.63-24.86 147.7-26.73 146.78-28.6 145.31-29.37 143.83-30.14 141.85-30.14L141.85-30.14 140.05-30.14Q138.73-30.14 138.09-29.92 137.45-29.7 137.23-29.06 137.01-28.42 137.01-27.02L137.01-27.02 137.01-4.14Q137.01-2.77 137.23-2.11 137.45-1.45 138.09-1.23 138.73-1.01 140.05-1.01L140.05-1.01 142.2-1.01Q144.18-1.01 145.7-1.87 147.22-2.73 148.3-4.8 149.38-6.86 149.95-10.38L149.95-10.38 150.96-10.38Q150.83-8.98 150.83-6.69L150.83-6.69Q150.83-5.68 150.87-3.83 150.92-1.98 151.14 0L151.14 0Q148.89-0.09 146.08-0.11 143.26-0.13 141.06-0.13L141.06-0.13Q139.56-0.13 137.1-0.13 134.64-0.13 131.87-0.11 129.09-0.09 126.72 0L126.72 0 126.72-0.88Q128.13-0.97 128.83-1.23 129.53-1.5 129.78-2.29 130.02-3.08 130.02-4.66L130.02-4.66 130.02-26.49Q130.02-28.12 129.78-28.89 129.53-29.66 128.81-29.94 128.08-30.23 126.72-30.27L126.72-30.27 126.72-31.15Q129.09-31.11 131.87-31.06 134.64-31.02 137.1-31.02 139.56-31.02 141.06-31.02L141.06-31.02Q143.08-31.02 145.66-31.04 148.23-31.06 150.26-31.15ZM135.69-16.1L143.39-16.1Q143.39-16.1 143.39-15.66 143.39-15.22 143.39-15.22L143.39-15.22 135.69-15.22Q135.69-15.22 135.69-15.66 135.69-16.1 135.69-16.1L135.69-16.1ZM143.66-21.91L144.67-21.91Q144.49-19.4 144.51-18.08 144.54-16.76 144.54-15.66L144.54-15.66Q144.54-14.56 144.58-13.24 144.62-11.92 144.8-9.42L144.8-9.42 143.79-9.42Q143.57-10.96 142.97-12.28 142.38-13.6 141.28-14.41 140.18-15.22 138.42-15.22L138.42-15.22 138.42-16.1Q140.18-16.1 141.24-17.07 142.29-18.04 142.86-19.38 143.44-20.72 143.66-21.91L143.66-21.91ZM168.47-31.15L168.47-31.15 168.47-30.27Q166.98-30.23 166.21-29.94 165.44-29.66 165.17-28.89 164.91-28.12 164.91-26.49L164.91-26.49 164.91-4.14Q164.91-2.77 165.11-2.11 165.3-1.45 165.9-1.23 166.49-1.01 167.68-1.01L167.68-1.01 169.84-1.01Q171.86-1.01 173.51-2.24 175.16-3.48 176.28-5.7 177.4-7.92 177.84-10.82L177.84-10.82 178.86-10.82Q178.72-9.33 178.72-6.95L178.72-6.95Q178.72-5.94 178.77-4 178.81-2.07 179.03 0L179.03 0Q176.79-0.09 173.97-0.11 171.16-0.13 168.96-0.13L168.96-0.13Q167.46-0.13 165-0.13 162.53-0.13 159.76-0.11 156.99-0.09 154.61 0L154.61 0 154.61-0.88Q156.02-0.97 156.72-1.23 157.43-1.5 157.67-2.29 157.91-3.08 157.91-4.66L157.91-4.66 157.91-26.49Q157.91-28.12 157.67-28.89 157.43-29.66 156.7-29.94 155.98-30.23 154.61-30.27L154.61-30.27 154.61-31.15Q155.71-31.11 157.58-31.06 159.45-31.02 161.56-31.02L161.56-31.02Q163.5-31.02 165.37-31.06 167.24-31.11 168.47-31.15Z" transform="translate(-1.5, 31.770000457763672)"></path></g> <!----> <!----> <!----> <!----> <!----> <!----> <!----></g></g> <!----></g></g><defs v-gra="od"></defs></svg>